IKResults
version=1
nRows=16
nColumns=40
inDegrees=yes

Units are S.I. units (second, meters, Newtons, ...)
Angles are in degrees.

endheader
time	pelvis_tilt	pelvis_list	pelvis_rotation	pelvis_tx	pelvis_ty	pelvis_tz	hip_flexion_r	hip_adduction_r	hip_rotation_r	knee_angle_r	knee_angle_r_beta	ankle_angle_r	subtalar_angle_r	mtp_angle_r	hip_flexion_l	hip_adduction_l	hip_rotation_l	knee_angle_l	knee_angle_l_beta	ankle_angle_l	subtalar_angle_l	mtp_angle_l	lumbar_extension	lumbar_bending	lumbar_rotation	arm_flex_r	arm_add_r	arm_rot_r	elbow_flex_r	pro_sup_r	wrist_flex_r	wrist_dev_r	arm_flex_l	arm_add_l	arm_rot_l	elbow_flex_l	pro_sup_l	wrist_flex_l	wrist_dev_l
      0.49000000	     19.48722563	      0.54749505	     -2.13644795	     -0.51129002	      0.95636503	     -1.46382483	     -6.68712189	     -2.72558361	     -4.73846691	    -58.85958046	     -1.02729348	     -1.31010757	    -15.33790962	     12.97937823	    -15.87430999	     -2.48249306	     14.53408530	    -15.20817774	     -0.26543277	      8.87332295	      0.10518022	     -5.73073233	    -25.59021811	     -1.66293637	     -0.72602846	     -1.03004478	     -8.60242511	      0.61868586	     19.53000824	     89.95437384	      0.00000000	      0.00000000	      3.00529221	     10.38823727	      3.35390748	     19.98929649	     89.95437384	      0.00000000	      0.00000000
      0.50000000	     19.46862021	      0.14265222	     -1.75422831	     -0.50198410	      0.95671832	     -1.46483288	     -5.69289930	     -2.02035161	     -4.84245319	    -57.79087771	     -1.00864109	      0.25720420	    -15.48541343	     12.93373257	    -16.60578447	     -2.09031534	     13.76450424	    -15.00181473	     -0.26183106	      9.30740230	      0.29763998	     -5.70498849	    -25.71705376	     -1.06462758	     -1.12183265	     -1.62293814	     -8.57621430	      0.98193395	     18.77990589	     89.95437384	      0.00000000	      0.00000000	      4.24959345	     10.61562322	      3.29827033	     20.42042833	     89.95437384	      0.00000000	      0.00000000
      0.51000000	     19.42671470	     -0.10398101	     -1.43401926	     -0.49252618	      0.95685741	     -1.46593353	     -4.64695349	     -1.61748111	     -5.10207537	    -56.67836640	     -0.98922411	      1.46183747	    -15.83270410	     12.92212051	    -17.29422199	     -1.87022284	     13.14713606	    -14.81245276	     -0.25852607	      9.69517219	      0.44977321	     -5.67081786	    -25.76744423	     -0.63166259	     -1.46863304	     -2.28502894	     -8.58028719	      1.41935461	     18.09854741	     89.95437384	      0.00000000	      0.00000000	      5.42203092	     10.82074641	      3.28479060	     20.98565112	     89.95437384	      0.00000000	      0.00000000
      0.52000000	     19.13458702	     -0.14170173	     -1.33779787	     -0.48321317	      0.95642892	     -1.46698693	     -3.23953641	     -1.63287573	     -5.42840202	    -55.54384883	     -0.96942304	      2.04382687	    -15.72848232	     12.74373804	    -17.57204417	     -1.88802883	     13.18517321	    -14.82041936	     -0.25866511	      9.89508143	      0.52281127	     -5.58749304	    -25.56279712	     -0.48090069	     -1.67841350	     -3.05191898	     -8.59831987	      1.60382901	     17.64167837	     89.95437384	      0.00000000	      0.00000000	      6.51367226	     11.00073984	      3.33380928	     21.73462024	     89.95437384	      0.00000000	      0.00000000
      0.53000000	     19.23393205	     -0.60247565	     -0.88787691	     -0.47389080	      0.95661668	     -1.46783372	     -2.58549775	     -0.85034907	     -5.62680094	    -53.82120652	     -0.93935726	      3.22922309	    -16.09234300	     12.85457050	    -18.45935639	     -1.39751242	     12.27814956	    -14.55678042	     -0.25406375	     10.45754534	      0.68015008	     -5.57041882	    -25.76229667	      0.17574589	     -2.09870535	     -3.61694117	     -8.57897901	      2.00824391	     16.98211482	     89.95437384	      0.00000000	      0.00000000	      7.58136389	     11.21632015	      3.59467837	     22.48904039	     89.95437384	      0.00000000	      0.00000000
      0.54000000	     19.25178313	     -0.86959685	     -0.56555324	     -0.46437935	      0.95659489	     -1.46880224	     -1.85035625	     -0.50539268	     -6.10750248	    -51.99415743	     -0.90746924	      3.71756781	    -16.15536268	     13.09332901	    -19.24082611	     -1.13100287	     11.78269368	    -14.34939967	     -0.25044427	     10.80256520	      1.02186499	     -5.47305635	    -25.84942152	      0.61489528	     -2.49541202	     -4.28850280	     -8.60384211	      2.35567760	     16.53859742	     89.95437384	      0.00000000	      0.00000000	      8.54654056	     11.38530116	      3.98083054	     23.34010661	     89.95437384	      0.00000000	      0.00000000
      0.55000000	     19.21579264	     -1.09240648	     -0.24536388	     -0.45494539	      0.95635143	     -1.46973498	     -1.08124273	     -0.23306084	     -6.64346353	    -50.08297237	     -0.87411277	      4.01191475	    -16.09237124	     13.47607334	    -19.95134899	     -0.90504162	     11.30780022	    -14.10666476	     -0.24620775	     11.08211512	      1.40621687	     -5.32879779	    -25.88718362	      1.00534167	     -2.87843541	     -5.01296020	     -8.63364099	      2.59661419	     16.27299435	     89.95437384	      0.00000000	      0.00000000	      9.43267400	     11.54379247	      4.48915965	     24.36002804	     89.95437384	      0.00000000	      0.00000000
      0.56000000	     19.08590351	     -1.26179255	     -0.01306359	     -0.44562750	      0.95581398	     -1.47050681	     -0.24060774	     -0.02458535	     -7.10776983	    -48.09730697	     -0.83945637	      4.44647738	    -15.97699962	     13.89811169	    -20.53765832	     -0.74731980	     10.84927931	    -13.94190536	     -0.24333215	     11.49724528	      1.70600180	     -5.20183763	    -25.80573971	      1.29998440	     -3.19511370	     -5.71746432	     -8.66414895	      3.00168449	     15.97932150	     89.95437384	      0.00000000	      0.00000000	     10.33978810	     11.70297119	      4.91366078	     25.28929826	     89.95437384	      0.00000000	      0.00000000
      0.57000000	     18.80738696	     -1.36727028	      0.19672403	     -0.43631388	      0.95488310	     -1.47115460	      0.73881470	      0.09607734	     -7.62912383	    -46.05099833	     -0.80374154	      4.86425733	    -15.72834167	     13.94119980	    -20.89120361	     -0.61999154	     10.51289197	    -13.90232192	     -0.24264129	     11.97212627	      1.70926125	     -5.14288947	    -25.54755922	      1.50923289	     -3.49232071	     -6.35672342	     -8.65386070	      3.11561788	     15.63730272	     89.95437384	      0.00000000	      0.00000000	     11.20855517	     11.88429037	      5.23558468	     26.24975787	     89.95437384	      0.00000000	      0.00000000
      0.58000000	     18.59738671	     -1.52001026	      0.46681460	     -0.42684714	      0.95396740	     -1.47174446	      1.50358144	      0.24486296	     -8.35045911	    -43.73352778	     -0.76329405	      5.02022528	    -15.36245656	     13.98186982	    -21.31218906	     -0.41081266	     10.16487144	    -13.91896377	     -0.24293175	     12.51047955	      1.77540266	     -5.08849538	    -25.36460413	      1.77742109	     -3.84364048	     -7.05560957	     -8.65663067	      3.32641392	     15.43798359	     89.95437384	      0.00000000	      0.00000000	     11.96688402	     12.04775156	      5.74640120	     27.37488645	     89.95437384	      0.00000000	      0.00000000
      0.59000000	     18.35570923	     -1.70641395	      0.69617795	     -0.41768393	      0.95298851	     -1.47229585	      2.27604966	      0.45148590	     -8.89388396	    -41.35628782	     -0.72180339	      4.69425122	    -14.83489531	     13.98965065	    -21.65013955	     -0.17490083	      9.90679953	    -13.93456778	     -0.24320409	     12.89248807	      1.92690054	     -5.02926890	    -25.21185969	      2.07745173	     -4.15770600	     -7.66560849	     -8.68222062	      3.40320672	     15.32154051	     89.95437384	      0.00000000	      0.00000000	     12.68490923	     12.18319796	      6.36921369	     28.60375940	     89.95437384	      0.00000000	      0.00000000
      0.60000000	     17.93700335	     -1.61687085	      0.77584514	     -0.40836042	      0.95155156	     -1.47274687	      3.26555482	      0.26487705	     -9.72551421	    -38.97056150	     -0.68016461	      4.47235656	    -14.15140550	     13.87192304	    -21.75857412	     -0.26886986	      9.77475932	    -14.06093491	     -0.24540961	     13.27612669	      2.01409175	     -4.98599653	    -24.82783645	      2.03994526	     -4.44583569	     -8.36320375	     -8.69376006	      3.48350834	     15.29055693	     89.95437384	      0.00000000	      0.00000000	     13.36318776	     12.35747634	      6.73457678	     29.74915130	     89.95437384	      0.00000000	      0.00000000
      0.61000000	     17.40352381	     -1.49233409	      0.71178612	     -0.39892234	      0.94983094	     -1.47295263	      4.38352587	      0.02354935	    -10.54458638	    -36.64298637	     -0.63954076	      4.11973698	    -13.36558706	     13.71102899	    -21.75807617	     -0.44887968	      9.71979885	    -14.20593624	     -0.24794036	     13.56865346	      2.08283478	     -4.92905113	    -24.28992520	      1.89315284	     -4.55030309	     -9.05239385	     -8.70059295	      3.52995729	     15.27126796	     89.95437384	      0.00000000	      0.00000000	     13.99909341	     12.51916700	      7.03448375	     30.92265355	     89.95437384	      0.00000000	      0.00000000
      0.62000000	     17.64239287	     -2.06812194	      1.37165784	     -0.38922400	      0.94947100	     -1.47351529	      4.04982576	      0.66064726	    -12.04222819	    -33.28247855	     -0.58088883	      3.31636158	    -11.92588669	     13.52829637	    -22.66672688	      0.34468936	      8.84502578	    -14.21267374	     -0.24805795	     14.22676098	      2.56695852	     -4.95313563	    -24.60004368	      2.70979306	     -5.13518717	     -9.46077272	     -8.70263847	      3.55940981	     14.97494313	     89.95437384	      0.00000000	      0.00000000	     14.40630677	     12.56819079	      8.00606613	     32.54124955	     89.95437384	      0.00000000	      0.00000000
      0.63000000	     17.41375936	     -2.19630909	      1.69487231	     -0.37965744	      0.94815876	     -1.47385374	      4.47662196	      0.75167370	    -13.29474084	    -30.45534557	     -0.53154606	      2.71448116	    -10.35982462	     13.04937241	    -23.03926538	      0.56512999	      8.27567235	    -14.24748845	     -0.24866558	     14.63271715	      2.89832970	     -4.96396412	    -24.40047091	      2.94145979	     -5.51247896	     -9.99277226	     -8.70355417	      3.49641191	     14.85724098	     89.95437384	      0.00000000	      0.00000000	     14.92517295	     12.66981146	      8.44681013	     33.85107553	     89.95437384	      0.00000000	      0.00000000
      0.64000000	     17.15392101	     -2.32617506	      1.74044733	     -0.36979203	      0.94669922	     -1.47389963	      4.93191606	      0.86984627	    -14.40309114	    -27.67172777	     -0.48296276	      2.10406856	     -8.50296134	     12.40586032	    -23.46496570	      0.68301447	      7.98711957	    -14.20575440	     -0.24793719	     15.02975405	      3.21930246	     -4.98501251	    -24.14337119	      3.11008756	     -5.61727267	    -10.49017213	     -8.70461454	      3.30708968	     14.69313577	     89.95437384	      0.00000000	      0.00000000	     15.29282641	     12.79215606	      8.76292431	     35.25091728	     89.95437384	      0.00000000	      0.00000000
